<?xml version="1.0" encoding="UTF-8" standalone="no"?>
<!DOCTYPE svg PUBLIC "-//W3C//DTD SVG 1.1//EN"
 "http://www.w3.org/Graphics/SVG/1.1/DTD/svg11.dtd">
<!-- Generated by graphviz version 2.40.1 (20161225.0304)
 -->
<!-- Title: dependencies Pages: 1 -->
<svg width="676pt" height="284pt"
 viewBox="0.00 0.00 676.00 284.00" xmlns="http://www.w3.org/2000/svg" xmlns:xlink="http://www.w3.org/1999/xlink">
<g id="graph0" class="graph" transform="scale(1 1) rotate(0) translate(4 280)">
<title>dependencies</title>
<polygon fill="#ffffff" stroke="transparent" points="-4,4 -4,-280 672,-280 672,4 -4,4"/>
<text text-anchor="start" x="313.0091" y="-42.4" font-family="sans-serif" font-weight="bold" font-size="14.00" fill="#000000">Legend</text>
<polygon fill="#ffffb3" stroke="transparent" points="100,-10 100,-30 120,-30 120,-10 100,-10"/>
<text text-anchor="start" x="123.629" y="-15.4" font-family="sans-serif" font-size="14.00" fill="#000000"> &#160;Declarations</text>
<polygon fill="#8dd3c7" stroke="transparent" points="213,-10 213,-30 233,-30 233,-10 213,-10"/>
<text text-anchor="start" x="236.7251" y="-15.4" font-family="sans-serif" font-size="14.00" fill="#000000"> &#160;Module</text>
<polygon fill="#80b1d3" stroke="transparent" points="299,-10 299,-30 319,-30 319,-10 299,-10"/>
<text text-anchor="start" x="322.7812" y="-15.4" font-family="sans-serif" font-size="14.00" fill="#000000"> &#160;Bootstrap</text>
<polygon fill="#fdb462" stroke="transparent" points="396,-10 396,-30 416,-30 416,-10 396,-10"/>
<text text-anchor="start" x="419.6732" y="-15.4" font-family="sans-serif" font-size="14.00" fill="#000000"> &#160;Providers</text>
<polygon fill="#fb8072" stroke="transparent" points="492,-10 492,-30 512,-30 512,-10 492,-10"/>
<text text-anchor="start" x="515.7258" y="-15.4" font-family="sans-serif" font-size="14.00" fill="#000000"> &#160;Exports</text>
<g id="clust1" class="cluster">
<title>cluster_SharedModule</title>
<polygon fill="none" stroke="#000000" stroke-dasharray="1,5" points="8,-70 8,-268 660,-268 660,-70 8,-70"/>
</g>
<g id="clust2" class="cluster">
<title>cluster_SharedModule_declarations</title>
<polygon fill="none" stroke="#000000" points="150,-78 150,-130 652,-130 652,-78 150,-78"/>
</g>
<g id="clust7" class="cluster">
<title>cluster_SharedModule_exports</title>
<polygon fill="none" stroke="#000000" points="77,-208 77,-260 590,-260 590,-208 77,-208"/>
</g>
<g id="clust9" class="cluster">
<title>cluster_SharedModule_providers</title>
<polygon fill="none" stroke="#000000" points="16,-78 16,-130 142,-130 142,-78 16,-78"/>
</g>
<!-- AccordionAnchorDirective -->
<g id="node1" class="node">
<title>AccordionAnchorDirective</title>
<polygon fill="#ffffb3" stroke="#000000" points="643.6517,-122 474.3483,-122 474.3483,-86 643.6517,-86 643.6517,-122"/>
<text text-anchor="middle" x="559" y="-99.8" font-family="Times,serif" font-size="14.00" fill="#000000">AccordionAnchorDirective</text>
</g>
<!-- SharedModule -->
<g id="node4" class="node">
<title>SharedModule</title>
<polygon fill="#8dd3c7" stroke="#000000" points="375.4231,-187 372.4231,-191 351.4231,-191 348.4231,-187 276.5769,-187 276.5769,-151 375.4231,-151 375.4231,-187"/>
<text text-anchor="middle" x="326" y="-164.8" font-family="Times,serif" font-size="14.00" fill="#000000">SharedModule</text>
</g>
<!-- AccordionAnchorDirective&#45;&gt;SharedModule -->
<g id="edge1" class="edge">
<title>AccordionAnchorDirective&#45;&gt;SharedModule</title>
<path fill="none" stroke="#000000" d="M528.375,-122.0225C528.375,-139.3734 528.375,-163 528.375,-163 528.375,-163 385.2477,-163 385.2477,-163"/>
<polygon fill="#000000" stroke="#000000" points="385.2477,-159.5001 375.2477,-163 385.2477,-166.5001 385.2477,-159.5001"/>
</g>
<!-- AccordionDirective -->
<g id="node2" class="node">
<title>AccordionDirective</title>
<polygon fill="#ffffb3" stroke="#000000" points="456.6699,-122 329.3301,-122 329.3301,-86 456.6699,-86 456.6699,-122"/>
<text text-anchor="middle" x="393" y="-99.8" font-family="Times,serif" font-size="14.00" fill="#000000">AccordionDirective</text>
</g>
<!-- AccordionDirective&#45;&gt;SharedModule -->
<g id="edge2" class="edge">
<title>AccordionDirective&#45;&gt;SharedModule</title>
<path fill="none" stroke="#000000" d="M352.3131,-122.1061C352.3131,-122.1061 352.3131,-140.991 352.3131,-140.991"/>
<polygon fill="#000000" stroke="#000000" points="348.8132,-140.9909 352.3131,-150.991 355.8132,-140.991 348.8132,-140.9909"/>
</g>
<!-- AccordionLinkDirective -->
<g id="node3" class="node">
<title>AccordionLinkDirective</title>
<polygon fill="#ffffb3" stroke="#000000" points="311.6135,-122 158.3865,-122 158.3865,-86 311.6135,-86 311.6135,-122"/>
<text text-anchor="middle" x="235" y="-99.8" font-family="Times,serif" font-size="14.00" fill="#000000">AccordionLinkDirective</text>
</g>
<!-- AccordionLinkDirective&#45;&gt;SharedModule -->
<g id="edge3" class="edge">
<title>AccordionLinkDirective&#45;&gt;SharedModule</title>
<path fill="none" stroke="#000000" d="M294.2977,-122.1061C294.2977,-122.1061 294.2977,-140.991 294.2977,-140.991"/>
<polygon fill="#000000" stroke="#000000" points="290.7978,-140.9909 294.2977,-150.991 297.7978,-140.991 290.7978,-140.9909"/>
</g>
<!-- AccordionAnchorDirective  -->
<g id="node5" class="node">
<title>AccordionAnchorDirective </title>
<polygon fill="#fb8072" stroke="#000000" points="582.152,-252 409.848,-252 409.848,-216 582.152,-216 582.152,-252"/>
<text text-anchor="middle" x="496" y="-229.8" font-family="Times,serif" font-size="14.00" fill="#000000">AccordionAnchorDirective </text>
</g>
<!-- SharedModule&#45;&gt;AccordionAnchorDirective  -->
<g id="edge4" class="edge">
<title>SharedModule&#45;&gt;AccordionAnchorDirective </title>
<path fill="none" stroke="#000000" stroke-dasharray="5,2" d="M375.4882,-175C403.558,-175 433.1296,-175 433.1296,-175 433.1296,-175 433.1296,-205.9775 433.1296,-205.9775"/>
<polygon fill="#000000" stroke="#000000" points="429.6296,-205.9774 433.1296,-215.9775 436.6296,-205.9775 429.6296,-205.9774"/>
</g>
<!-- AccordionDirective  -->
<g id="node6" class="node">
<title>AccordionDirective </title>
<polygon fill="#fb8072" stroke="#000000" points="391.1702,-252 260.8298,-252 260.8298,-216 391.1702,-216 391.1702,-252"/>
<text text-anchor="middle" x="326" y="-229.8" font-family="Times,serif" font-size="14.00" fill="#000000">AccordionDirective </text>
</g>
<!-- SharedModule&#45;&gt;AccordionDirective  -->
<g id="edge5" class="edge">
<title>SharedModule&#45;&gt;AccordionDirective </title>
<path fill="none" stroke="#000000" stroke-dasharray="5,2" d="M326,-187.1061C326,-187.1061 326,-205.991 326,-205.991"/>
<polygon fill="#000000" stroke="#000000" points="322.5001,-205.9909 326,-215.991 329.5001,-205.991 322.5001,-205.9909"/>
</g>
<!-- AccordionLinkDirective  -->
<g id="node7" class="node">
<title>AccordionLinkDirective </title>
<polygon fill="#fb8072" stroke="#000000" points="242.613,-252 85.387,-252 85.387,-216 242.613,-216 242.613,-252"/>
<text text-anchor="middle" x="164" y="-229.8" font-family="Times,serif" font-size="14.00" fill="#000000">AccordionLinkDirective </text>
</g>
<!-- SharedModule&#45;&gt;AccordionLinkDirective  -->
<g id="edge6" class="edge">
<title>SharedModule&#45;&gt;AccordionLinkDirective </title>
<path fill="none" stroke="#000000" stroke-dasharray="5,2" d="M276.7102,-175C241.5157,-175 200.375,-175 200.375,-175 200.375,-175 200.375,-205.9775 200.375,-205.9775"/>
<polygon fill="#000000" stroke="#000000" points="196.8751,-205.9774 200.375,-215.9775 203.8751,-205.9775 196.8751,-205.9774"/>
</g>
<!-- MenuItems -->
<g id="node8" class="node">
<title>MenuItems</title>
<ellipse fill="#fdb462" stroke="#000000" cx="79" cy="-104" rx="55.0343" ry="18"/>
<text text-anchor="middle" x="79" y="-99.8" font-family="Times,serif" font-size="14.00" fill="#000000">MenuItems</text>
</g>
<!-- MenuItems&#45;&gt;SharedModule -->
<g id="edge7" class="edge">
<title>MenuItems&#45;&gt;SharedModule</title>
<path fill="none" stroke="#000000" d="M109.7303,-119.194C109.7303,-136.6752 109.7303,-163 109.7303,-163 109.7303,-163 266.6544,-163 266.6544,-163"/>
<polygon fill="#000000" stroke="#000000" points="266.6545,-166.5001 276.6544,-163 266.6544,-159.5001 266.6545,-166.5001"/>
</g>
</g>
</svg>
