<?xml version="1.0" encoding="UTF-8" standalone="no"?>
<!DOCTYPE svg PUBLIC "-//W3C//DTD SVG 1.1//EN"
 "http://www.w3.org/Graphics/SVG/1.1/DTD/svg11.dtd">
<!-- Generated by graphviz version 2.40.1 (20161225.0304)
 -->
<!-- Title: dependencies Pages: 1 -->
<svg width="3917pt" height="211pt"
 viewBox="0.00 0.00 3917.00 211.00" xmlns="http://www.w3.org/2000/svg" xmlns:xlink="http://www.w3.org/1999/xlink">
<g id="graph0" class="graph" transform="scale(1 1) rotate(0) translate(4 207)">
<title>dependencies</title>
<polygon fill="#ffffff" stroke="transparent" points="-4,4 -4,-207 3913,-207 3913,4 -4,4"/>
<text text-anchor="start" x="1933.5091" y="-42.4" font-family="sans-serif" font-weight="bold" font-size="14.00" fill="#000000">Legend</text>
<polygon fill="#ffffb3" stroke="transparent" points="1720.5,-10 1720.5,-30 1740.5,-30 1740.5,-10 1720.5,-10"/>
<text text-anchor="start" x="1744.129" y="-15.4" font-family="sans-serif" font-size="14.00" fill="#000000"> &#160;Declarations</text>
<polygon fill="#8dd3c7" stroke="transparent" points="1833.5,-10 1833.5,-30 1853.5,-30 1853.5,-10 1833.5,-10"/>
<text text-anchor="start" x="1857.2251" y="-15.4" font-family="sans-serif" font-size="14.00" fill="#000000"> &#160;Module</text>
<polygon fill="#80b1d3" stroke="transparent" points="1919.5,-10 1919.5,-30 1939.5,-30 1939.5,-10 1919.5,-10"/>
<text text-anchor="start" x="1943.2812" y="-15.4" font-family="sans-serif" font-size="14.00" fill="#000000"> &#160;Bootstrap</text>
<polygon fill="#fdb462" stroke="transparent" points="2016.5,-10 2016.5,-30 2036.5,-30 2036.5,-10 2016.5,-10"/>
<text text-anchor="start" x="2040.1732" y="-15.4" font-family="sans-serif" font-size="14.00" fill="#000000"> &#160;Providers</text>
<polygon fill="#fb8072" stroke="transparent" points="2112.5,-10 2112.5,-30 2132.5,-30 2132.5,-10 2112.5,-10"/>
<text text-anchor="start" x="2136.2258" y="-15.4" font-family="sans-serif" font-size="14.00" fill="#000000"> &#160;Exports</text>
<g id="clust1" class="cluster">
<title>cluster_MaterialComponentsModule</title>
<polygon fill="none" stroke="#000000" stroke-dasharray="1,5" points="8,-70 8,-195 3901,-195 3901,-70 8,-70"/>
</g>
<g id="clust2" class="cluster">
<title>cluster_MaterialComponentsModule_declarations</title>
<polygon fill="none" stroke="#000000" points="182,-78 182,-130 3893,-130 3893,-78 182,-78"/>
</g>
<g id="clust25" class="cluster">
<title>cluster_MaterialComponentsModule_imports</title>
<polygon fill="none" stroke="#000000" points="16,-78 16,-130 174,-130 174,-78 16,-78"/>
</g>
<!-- BalanceComponent -->
<g id="node1" class="node">
<title>BalanceComponent</title>
<polygon fill="#ffffb3" stroke="#000000" points="3885.4187,-122 3758.5813,-122 3758.5813,-86 3885.4187,-86 3885.4187,-122"/>
<text text-anchor="middle" x="3822" y="-99.8" font-family="Times,serif" font-size="14.00" fill="#000000">BalanceComponent</text>
</g>
<!-- MaterialComponentsModule -->
<g id="node23" class="node">
<title>MaterialComponentsModule</title>
<polygon fill="#8dd3c7" stroke="#000000" points="1968.7478,-187 1965.7478,-191 1944.7478,-191 1941.7478,-187 1791.2522,-187 1791.2522,-151 1968.7478,-151 1968.7478,-187"/>
<text text-anchor="middle" x="1880" y="-164.8" font-family="Times,serif" font-size="14.00" fill="#000000">MaterialComponentsModule</text>
</g>
<!-- BalanceComponent&#45;&gt;MaterialComponentsModule -->
<g id="edge1" class="edge">
<title>BalanceComponent&#45;&gt;MaterialComponentsModule</title>
<path fill="none" stroke="#000000" d="M3822,-122.1532C3822,-145.7566 3822,-184 3822,-184 3822,-184 1978.8097,-184 1978.8097,-184"/>
<polygon fill="#000000" stroke="#000000" points="1978.8098,-180.5001 1968.8097,-184 1978.8097,-187.5001 1978.8098,-180.5001"/>
</g>
<!-- BudgetDetailComponent -->
<g id="node2" class="node">
<title>BudgetDetailComponent</title>
<polygon fill="#ffffb3" stroke="#000000" points="3740.9818,-122 3585.0182,-122 3585.0182,-86 3740.9818,-86 3740.9818,-122"/>
<text text-anchor="middle" x="3663" y="-99.8" font-family="Times,serif" font-size="14.00" fill="#000000">BudgetDetailComponent</text>
</g>
<!-- BudgetDetailComponent&#45;&gt;MaterialComponentsModule -->
<g id="edge2" class="edge">
<title>BudgetDetailComponent&#45;&gt;MaterialComponentsModule</title>
<path fill="none" stroke="#000000" d="M3663,-122.0908C3663,-145.1328 3663,-182 3663,-182 3663,-182 1979.0293,-182 1979.0293,-182"/>
<polygon fill="#000000" stroke="#000000" points="1979.0293,-178.5001 1969.0293,-182 1979.0292,-185.5001 1979.0293,-178.5001"/>
</g>
<!-- BudgetGoalComponent -->
<g id="node3" class="node">
<title>BudgetGoalComponent</title>
<polygon fill="#ffffb3" stroke="#000000" points="3567.486,-122 3418.514,-122 3418.514,-86 3567.486,-86 3567.486,-122"/>
<text text-anchor="middle" x="3493" y="-99.8" font-family="Times,serif" font-size="14.00" fill="#000000">BudgetGoalComponent</text>
</g>
<!-- BudgetGoalComponent&#45;&gt;MaterialComponentsModule -->
<g id="edge3" class="edge">
<title>BudgetGoalComponent&#45;&gt;MaterialComponentsModule</title>
<path fill="none" stroke="#000000" d="M3493,-122.2921C3493,-144.2057 3493,-178 3493,-178 3493,-178 1979.0195,-178 1979.0195,-178"/>
<polygon fill="#000000" stroke="#000000" points="1979.0195,-174.5001 1969.0195,-178 1979.0194,-181.5001 1979.0195,-174.5001"/>
</g>
<!-- CheckDespachoComponent -->
<g id="node4" class="node">
<title>CheckDespachoComponent</title>
<polygon fill="#ffffb3" stroke="#000000" points="3400.2934,-122 3227.7066,-122 3227.7066,-86 3400.2934,-86 3400.2934,-122"/>
<text text-anchor="middle" x="3314" y="-99.8" font-family="Times,serif" font-size="14.00" fill="#000000">CheckDespachoComponent</text>
</g>
<!-- CheckDespachoComponent&#45;&gt;MaterialComponentsModule -->
<g id="edge4" class="edge">
<title>CheckDespachoComponent&#45;&gt;MaterialComponentsModule</title>
<path fill="none" stroke="#000000" d="M3314,-122.2843C3314,-143.3211 3314,-175 3314,-175 3314,-175 1978.8909,-175 1978.8909,-175"/>
<polygon fill="#000000" stroke="#000000" points="1978.891,-171.5001 1968.8909,-175 1978.8909,-178.5001 1978.891,-171.5001"/>
</g>
<!-- CostEffectivenessComponent -->
<g id="node5" class="node">
<title>CostEffectivenessComponent</title>
<polygon fill="#ffffb3" stroke="#000000" points="3210.4073,-122 3027.5927,-122 3027.5927,-86 3210.4073,-86 3210.4073,-122"/>
<text text-anchor="middle" x="3119" y="-99.8" font-family="Times,serif" font-size="14.00" fill="#000000">CostEffectivenessComponent</text>
</g>
<!-- CostEffectivenessComponent&#45;&gt;MaterialComponentsModule -->
<g id="edge5" class="edge">
<title>CostEffectivenessComponent&#45;&gt;MaterialComponentsModule</title>
<path fill="none" stroke="#000000" d="M3119,-122.2228C3119,-142.3652 3119,-172 3119,-172 3119,-172 1979.1058,-172 1979.1058,-172"/>
<polygon fill="#000000" stroke="#000000" points="1979.1059,-168.5001 1969.1058,-172 1979.1058,-175.5001 1979.1059,-168.5001"/>
</g>
<!-- DeclarationImportComponent -->
<g id="node6" class="node">
<title>DeclarationImportComponent</title>
<polygon fill="#ffffb3" stroke="#000000" points="3009.2324,-122 2824.7676,-122 2824.7676,-86 3009.2324,-86 3009.2324,-122"/>
<text text-anchor="middle" x="2917" y="-99.8" font-family="Times,serif" font-size="14.00" fill="#000000">DeclarationImportComponent</text>
</g>
<!-- DeclarationImportComponent&#45;&gt;MaterialComponentsModule -->
<g id="edge6" class="edge">
<title>DeclarationImportComponent&#45;&gt;MaterialComponentsModule</title>
<path fill="none" stroke="#000000" d="M2917,-122.1061C2917,-141.3391 2917,-169 2917,-169 2917,-169 1978.8623,-169 1978.8623,-169"/>
<polygon fill="#000000" stroke="#000000" points="1978.8624,-165.5001 1968.8623,-169 1978.8623,-172.5001 1978.8624,-165.5001"/>
</g>
<!-- DescriptionDespachoComponent -->
<g id="node7" class="node">
<title>DescriptionDespachoComponent</title>
<polygon fill="#ffffb3" stroke="#000000" points="2806.8403,-122 2605.1597,-122 2605.1597,-86 2806.8403,-86 2806.8403,-122"/>
<text text-anchor="middle" x="2706" y="-99.8" font-family="Times,serif" font-size="14.00" fill="#000000">DescriptionDespachoComponent</text>
</g>
<!-- DescriptionDespachoComponent&#45;&gt;MaterialComponentsModule -->
<g id="edge7" class="edge">
<title>DescriptionDespachoComponent&#45;&gt;MaterialComponentsModule</title>
<path fill="none" stroke="#000000" d="M2706,-122.2222C2706,-140.8285 2706,-167 2706,-167 2706,-167 1978.7885,-167 1978.7885,-167"/>
<polygon fill="#000000" stroke="#000000" points="1978.7886,-163.5001 1968.7885,-167 1978.7885,-170.5001 1978.7886,-163.5001"/>
</g>
<!-- DialogAnomalyComponent -->
<g id="node8" class="node">
<title>DialogAnomalyComponent</title>
<polygon fill="#ffffb3" stroke="#000000" points="2586.5378,-122 2415.4622,-122 2415.4622,-86 2586.5378,-86 2586.5378,-122"/>
<text text-anchor="middle" x="2501" y="-99.8" font-family="Times,serif" font-size="14.00" fill="#000000">DialogAnomalyComponent</text>
</g>
<!-- DialogAnomalyComponent&#45;&gt;MaterialComponentsModule -->
<g id="edge8" class="edge">
<title>DialogAnomalyComponent&#45;&gt;MaterialComponentsModule</title>
<path fill="none" stroke="#000000" d="M2501,-122.0225C2501,-139.3734 2501,-163 2501,-163 2501,-163 1978.9742,-163 1978.9742,-163"/>
<polygon fill="#000000" stroke="#000000" points="1978.9742,-159.5001 1968.9742,-163 1978.9741,-166.5001 1978.9742,-159.5001"/>
</g>
<!-- DialogReportComponent -->
<g id="node9" class="node">
<title>DialogReportComponent</title>
<polygon fill="#ffffb3" stroke="#000000" points="2396.5379,-122 2239.4621,-122 2239.4621,-86 2396.5379,-86 2396.5379,-122"/>
<text text-anchor="middle" x="2318" y="-99.8" font-family="Times,serif" font-size="14.00" fill="#000000">DialogReportComponent</text>
</g>
<!-- DialogReportComponent&#45;&gt;MaterialComponentsModule -->
<g id="edge9" class="edge">
<title>DialogReportComponent&#45;&gt;MaterialComponentsModule</title>
<path fill="none" stroke="#000000" d="M2318,-122.027C2318,-138.3976 2318,-160 2318,-160 2318,-160 1978.8997,-160 1978.8997,-160"/>
<polygon fill="#000000" stroke="#000000" points="1978.8997,-156.5001 1968.8997,-160 1978.8996,-163.5001 1978.8997,-156.5001"/>
</g>
<!-- GridComponent -->
<g id="node10" class="node">
<title>GridComponent</title>
<polygon fill="#ffffb3" stroke="#000000" points="2221.4902,-122 2114.5098,-122 2114.5098,-86 2221.4902,-86 2221.4902,-122"/>
<text text-anchor="middle" x="2168" y="-99.8" font-family="Times,serif" font-size="14.00" fill="#000000">GridComponent</text>
</g>
<!-- GridComponent&#45;&gt;MaterialComponentsModule -->
<g id="edge10" class="edge">
<title>GridComponent&#45;&gt;MaterialComponentsModule</title>
<path fill="none" stroke="#000000" d="M2168,-122.2396C2168,-137.5706 2168,-157 2168,-157 2168,-157 1978.7595,-157 1978.7595,-157"/>
<polygon fill="#000000" stroke="#000000" points="1978.7595,-153.5001 1968.7595,-157 1978.7594,-160.5001 1978.7595,-153.5001"/>
</g>
<!-- ListsComponent -->
<g id="node11" class="node">
<title>ListsComponent</title>
<polygon fill="#ffffb3" stroke="#000000" points="2096.0563,-122 1987.9437,-122 1987.9437,-86 2096.0563,-86 2096.0563,-122"/>
<text text-anchor="middle" x="2042" y="-99.8" font-family="Times,serif" font-size="14.00" fill="#000000">ListsComponent</text>
</g>
<!-- ListsComponent&#45;&gt;MaterialComponentsModule -->
<g id="edge11" class="edge">
<title>ListsComponent&#45;&gt;MaterialComponentsModule</title>
<path fill="none" stroke="#000000" d="M2042,-122.0511C2042,-136.373 2042,-154 2042,-154 2042,-154 1979.0565,-154 1979.0565,-154"/>
<polygon fill="#000000" stroke="#000000" points="1979.0565,-150.5001 1969.0565,-154 1979.0565,-157.5001 1979.0565,-150.5001"/>
</g>
<!-- LowSalesProductComponent -->
<g id="node12" class="node">
<title>LowSalesProductComponent</title>
<polygon fill="#ffffb3" stroke="#000000" points="1970.087,-122 1789.913,-122 1789.913,-86 1970.087,-86 1970.087,-122"/>
<text text-anchor="middle" x="1880" y="-99.8" font-family="Times,serif" font-size="14.00" fill="#000000">LowSalesProductComponent</text>
</g>
<!-- LowSalesProductComponent&#45;&gt;MaterialComponentsModule -->
<g id="edge12" class="edge">
<title>LowSalesProductComponent&#45;&gt;MaterialComponentsModule</title>
<path fill="none" stroke="#000000" d="M1880,-122.1061C1880,-122.1061 1880,-140.991 1880,-140.991"/>
<polygon fill="#000000" stroke="#000000" points="1876.5001,-140.9909 1880,-150.991 1883.5001,-140.991 1876.5001,-140.9909"/>
</g>
<!-- MenuComponent -->
<g id="node13" class="node">
<title>MenuComponent</title>
<polygon fill="#ffffb3" stroke="#000000" points="1771.9916,-122 1658.0084,-122 1658.0084,-86 1771.9916,-86 1771.9916,-122"/>
<text text-anchor="middle" x="1715" y="-99.8" font-family="Times,serif" font-size="14.00" fill="#000000">MenuComponent</text>
</g>
<!-- MenuComponent&#45;&gt;MaterialComponentsModule -->
<g id="edge13" class="edge">
<title>MenuComponent&#45;&gt;MaterialComponentsModule</title>
<path fill="none" stroke="#000000" d="M1715,-122.0511C1715,-136.373 1715,-154 1715,-154 1715,-154 1781.2212,-154 1781.2212,-154"/>
<polygon fill="#000000" stroke="#000000" points="1781.2213,-157.5001 1791.2212,-154 1781.2212,-150.5001 1781.2213,-157.5001"/>
</g>
<!-- NewUserComponent -->
<g id="node14" class="node">
<title>NewUserComponent</title>
<polygon fill="#ffffb3" stroke="#000000" points="1640.1867,-122 1505.8133,-122 1505.8133,-86 1640.1867,-86 1640.1867,-122"/>
<text text-anchor="middle" x="1573" y="-99.8" font-family="Times,serif" font-size="14.00" fill="#000000">NewUserComponent</text>
</g>
<!-- NewUserComponent&#45;&gt;MaterialComponentsModule -->
<g id="edge14" class="edge">
<title>NewUserComponent&#45;&gt;MaterialComponentsModule</title>
<path fill="none" stroke="#000000" d="M1573,-122.2396C1573,-137.5706 1573,-157 1573,-157 1573,-157 1781.2029,-157 1781.2029,-157"/>
<polygon fill="#000000" stroke="#000000" points="1781.2029,-160.5001 1791.2029,-157 1781.2028,-153.5001 1781.2029,-160.5001"/>
</g>
<!-- PositionComponent -->
<g id="node15" class="node">
<title>PositionComponent</title>
<polygon fill="#ffffb3" stroke="#000000" points="1487.7316,-122 1360.2684,-122 1360.2684,-86 1487.7316,-86 1487.7316,-122"/>
<text text-anchor="middle" x="1424" y="-99.8" font-family="Times,serif" font-size="14.00" fill="#000000">PositionComponent</text>
</g>
<!-- PositionComponent&#45;&gt;MaterialComponentsModule -->
<g id="edge15" class="edge">
<title>PositionComponent&#45;&gt;MaterialComponentsModule</title>
<path fill="none" stroke="#000000" d="M1424,-122.027C1424,-138.3976 1424,-160 1424,-160 1424,-160 1780.9961,-160 1780.9961,-160"/>
<polygon fill="#000000" stroke="#000000" points="1780.9961,-163.5001 1790.9961,-160 1780.9961,-156.5001 1780.9961,-163.5001"/>
</g>
<!-- ReportStoreComponent -->
<g id="node16" class="node">
<title>ReportStoreComponent</title>
<polygon fill="#ffffb3" stroke="#000000" points="1342.4832,-122 1193.5168,-122 1193.5168,-86 1342.4832,-86 1342.4832,-122"/>
<text text-anchor="middle" x="1268" y="-99.8" font-family="Times,serif" font-size="14.00" fill="#000000">ReportStoreComponent</text>
</g>
<!-- ReportStoreComponent&#45;&gt;MaterialComponentsModule -->
<g id="edge16" class="edge">
<title>ReportStoreComponent&#45;&gt;MaterialComponentsModule</title>
<path fill="none" stroke="#000000" d="M1268,-122.0225C1268,-139.3734 1268,-163 1268,-163 1268,-163 1781.0099,-163 1781.0099,-163"/>
<polygon fill="#000000" stroke="#000000" points="1781.01,-166.5001 1791.0099,-163 1781.0099,-159.5001 1781.01,-166.5001"/>
</g>
<!-- RosterComponent -->
<g id="node17" class="node">
<title>RosterComponent</title>
<polygon fill="#ffffb3" stroke="#000000" points="1175.8795,-122 1058.1205,-122 1058.1205,-86 1175.8795,-86 1175.8795,-122"/>
<text text-anchor="middle" x="1117" y="-99.8" font-family="Times,serif" font-size="14.00" fill="#000000">RosterComponent</text>
</g>
<!-- RosterComponent&#45;&gt;MaterialComponentsModule -->
<g id="edge17" class="edge">
<title>RosterComponent&#45;&gt;MaterialComponentsModule</title>
<path fill="none" stroke="#000000" d="M1117,-122.2222C1117,-140.8285 1117,-167 1117,-167 1117,-167 1780.9809,-167 1780.9809,-167"/>
<polygon fill="#000000" stroke="#000000" points="1780.981,-170.5001 1790.9809,-167 1780.9809,-163.5001 1780.981,-170.5001"/>
</g>
<!-- SchedulesComponent -->
<g id="node18" class="node">
<title>SchedulesComponent</title>
<polygon fill="#ffffb3" stroke="#000000" points="1040.094,-122 901.906,-122 901.906,-86 1040.094,-86 1040.094,-122"/>
<text text-anchor="middle" x="971" y="-99.8" font-family="Times,serif" font-size="14.00" fill="#000000">SchedulesComponent</text>
</g>
<!-- SchedulesComponent&#45;&gt;MaterialComponentsModule -->
<g id="edge18" class="edge">
<title>SchedulesComponent&#45;&gt;MaterialComponentsModule</title>
<path fill="none" stroke="#000000" d="M971,-122.1061C971,-141.3391 971,-169 971,-169 971,-169 1781.1862,-169 1781.1862,-169"/>
<polygon fill="#000000" stroke="#000000" points="1781.1862,-172.5001 1791.1862,-169 1781.1862,-165.5001 1781.1862,-172.5001"/>
</g>
<!-- UploadCsvComponent -->
<g id="node19" class="node">
<title>UploadCsvComponent</title>
<polygon fill="#ffffb3" stroke="#000000" points="884.3258,-122 739.6742,-122 739.6742,-86 884.3258,-86 884.3258,-122"/>
<text text-anchor="middle" x="812" y="-99.8" font-family="Times,serif" font-size="14.00" fill="#000000">UploadCsvComponent</text>
</g>
<!-- UploadCsvComponent&#45;&gt;MaterialComponentsModule -->
<g id="edge19" class="edge">
<title>UploadCsvComponent&#45;&gt;MaterialComponentsModule</title>
<path fill="none" stroke="#000000" d="M812,-122.2228C812,-142.3652 812,-172 812,-172 812,-172 1781.2367,-172 1781.2367,-172"/>
<polygon fill="#000000" stroke="#000000" points="1781.2367,-175.5001 1791.2367,-172 1781.2366,-168.5001 1781.2367,-175.5001"/>
</g>
<!-- ViewDeclarationComponent -->
<g id="node20" class="node">
<title>ViewDeclarationComponent</title>
<polygon fill="#ffffb3" stroke="#000000" points="721.4482,-122 544.5518,-122 544.5518,-86 721.4482,-86 721.4482,-122"/>
<text text-anchor="middle" x="633" y="-99.8" font-family="Times,serif" font-size="14.00" fill="#000000">ViewDeclarationComponent</text>
</g>
<!-- ViewDeclarationComponent&#45;&gt;MaterialComponentsModule -->
<g id="edge20" class="edge">
<title>ViewDeclarationComponent&#45;&gt;MaterialComponentsModule</title>
<path fill="none" stroke="#000000" d="M633,-122.2843C633,-143.3211 633,-175 633,-175 633,-175 1780.8193,-175 1780.8193,-175"/>
<polygon fill="#000000" stroke="#000000" points="1780.8193,-178.5001 1790.8193,-175 1780.8192,-171.5001 1780.8193,-178.5001"/>
</g>
<!-- ViewReportComponent -->
<g id="node21" class="node">
<title>ViewReportComponent</title>
<polygon fill="#ffffb3" stroke="#000000" points="526.7534,-122 377.2466,-122 377.2466,-86 526.7534,-86 526.7534,-122"/>
<text text-anchor="middle" x="452" y="-99.8" font-family="Times,serif" font-size="14.00" fill="#000000">ViewReportComponent</text>
</g>
<!-- ViewReportComponent&#45;&gt;MaterialComponentsModule -->
<g id="edge21" class="edge">
<title>ViewReportComponent&#45;&gt;MaterialComponentsModule</title>
<path fill="none" stroke="#000000" d="M452,-122.2921C452,-144.2057 452,-178 452,-178 452,-178 1781.2117,-178 1781.2117,-178"/>
<polygon fill="#000000" stroke="#000000" points="1781.2118,-181.5001 1791.2117,-178 1781.2117,-174.5001 1781.2118,-181.5001"/>
</g>
<!-- ViewdespachosComponent -->
<g id="node22" class="node">
<title>ViewdespachosComponent</title>
<polygon fill="#ffffb3" stroke="#000000" points="359.6839,-122 190.3161,-122 190.3161,-86 359.6839,-86 359.6839,-122"/>
<text text-anchor="middle" x="275" y="-99.8" font-family="Times,serif" font-size="14.00" fill="#000000">ViewdespachosComponent</text>
</g>
<!-- ViewdespachosComponent&#45;&gt;MaterialComponentsModule -->
<g id="edge22" class="edge">
<title>ViewdespachosComponent&#45;&gt;MaterialComponentsModule</title>
<path fill="none" stroke="#000000" d="M275,-122.0908C275,-145.1328 275,-182 275,-182 275,-182 1781.1344,-182 1781.1344,-182"/>
<polygon fill="#000000" stroke="#000000" points="1781.1345,-185.5001 1791.1344,-182 1781.1344,-178.5001 1781.1345,-185.5001"/>
</g>
<!-- DemoMaterialModule -->
<g id="node24" class="node">
<title>DemoMaterialModule</title>
<polygon fill="#8dd3c7" stroke="#000000" points="165.6825,-122 162.6825,-126 141.6825,-126 138.6825,-122 24.3175,-122 24.3175,-86 165.6825,-86 165.6825,-122"/>
<text text-anchor="middle" x="95" y="-99.8" font-family="Times,serif" font-size="14.00" fill="#000000">DemoMaterialModule</text>
</g>
<!-- DemoMaterialModule&#45;&gt;MaterialComponentsModule -->
<g id="edge23" class="edge">
<title>DemoMaterialModule&#45;&gt;MaterialComponentsModule</title>
<path fill="none" stroke="#000000" d="M95,-122.1532C95,-145.7566 95,-184 95,-184 95,-184 1781.1764,-184 1781.1764,-184"/>
<polygon fill="#000000" stroke="#000000" points="1781.1765,-187.5001 1791.1764,-184 1781.1764,-180.5001 1781.1765,-187.5001"/>
</g>
</g>
</svg>
