<?xml version="1.0" encoding="UTF-8" standalone="no"?>
<!DOCTYPE svg PUBLIC "-//W3C//DTD SVG 1.1//EN"
 "http://www.w3.org/Graphics/SVG/1.1/DTD/svg11.dtd">
<!-- Generated by graphviz version 2.40.1 (20161225.0304)
 -->
<!-- Title: dependencies Pages: 1 -->
<svg width="3932pt" height="211pt"
 viewBox="0.00 0.00 3932.00 211.00" xmlns="http://www.w3.org/2000/svg" xmlns:xlink="http://www.w3.org/1999/xlink">
<g id="graph0" class="graph" transform="scale(1 1) rotate(0) translate(4 207)">
<title>dependencies</title>
<polygon fill="#ffffff" stroke="transparent" points="-4,4 -4,-207 3928,-207 3928,4 -4,4"/>
<text text-anchor="start" x="1941.0091" y="-42.4" font-family="sans-serif" font-weight="bold" font-size="14.00" fill="#000000">Legend</text>
<polygon fill="#ffffb3" stroke="transparent" points="1728,-10 1728,-30 1748,-30 1748,-10 1728,-10"/>
<text text-anchor="start" x="1751.629" y="-15.4" font-family="sans-serif" font-size="14.00" fill="#000000"> &#160;Declarations</text>
<polygon fill="#8dd3c7" stroke="transparent" points="1841,-10 1841,-30 1861,-30 1861,-10 1841,-10"/>
<text text-anchor="start" x="1864.7251" y="-15.4" font-family="sans-serif" font-size="14.00" fill="#000000"> &#160;Module</text>
<polygon fill="#80b1d3" stroke="transparent" points="1927,-10 1927,-30 1947,-30 1947,-10 1927,-10"/>
<text text-anchor="start" x="1950.7812" y="-15.4" font-family="sans-serif" font-size="14.00" fill="#000000"> &#160;Bootstrap</text>
<polygon fill="#fdb462" stroke="transparent" points="2024,-10 2024,-30 2044,-30 2044,-10 2024,-10"/>
<text text-anchor="start" x="2047.6732" y="-15.4" font-family="sans-serif" font-size="14.00" fill="#000000"> &#160;Providers</text>
<polygon fill="#fb8072" stroke="transparent" points="2120,-10 2120,-30 2140,-30 2140,-10 2120,-10"/>
<text text-anchor="start" x="2143.7258" y="-15.4" font-family="sans-serif" font-size="14.00" fill="#000000"> &#160;Exports</text>
<g id="clust1" class="cluster">
<title>cluster_MaterialComponentsModule</title>
<polygon fill="none" stroke="#000000" stroke-dasharray="1,5" points="8,-70 8,-195 3916,-195 3916,-70 8,-70"/>
</g>
<g id="clust2" class="cluster">
<title>cluster_MaterialComponentsModule_declarations</title>
<polygon fill="none" stroke="#000000" points="182,-78 182,-130 3908,-130 3908,-78 182,-78"/>
</g>
<g id="clust25" class="cluster">
<title>cluster_MaterialComponentsModule_imports</title>
<polygon fill="none" stroke="#000000" points="16,-78 16,-130 174,-130 174,-78 16,-78"/>
</g>
<!-- BalanceComponent -->
<g id="node1" class="node">
<title>BalanceComponent</title>
<polygon fill="#ffffb3" stroke="#000000" points="3900.4187,-122 3773.5813,-122 3773.5813,-86 3900.4187,-86 3900.4187,-122"/>
<text text-anchor="middle" x="3837" y="-99.8" font-family="Times,serif" font-size="14.00" fill="#000000">BalanceComponent</text>
</g>
<!-- MaterialComponentsModule -->
<g id="node23" class="node">
<title>MaterialComponentsModule</title>
<polygon fill="#8dd3c7" stroke="#000000" points="1983.7478,-187 1980.7478,-191 1959.7478,-191 1956.7478,-187 1806.2522,-187 1806.2522,-151 1983.7478,-151 1983.7478,-187"/>
<text text-anchor="middle" x="1895" y="-164.8" font-family="Times,serif" font-size="14.00" fill="#000000">MaterialComponentsModule</text>
</g>
<!-- BalanceComponent&#45;&gt;MaterialComponentsModule -->
<g id="edge1" class="edge">
<title>BalanceComponent&#45;&gt;MaterialComponentsModule</title>
<path fill="none" stroke="#000000" d="M3837,-122.1532C3837,-145.7566 3837,-184 3837,-184 3837,-184 1993.8097,-184 1993.8097,-184"/>
<polygon fill="#000000" stroke="#000000" points="1993.8098,-180.5001 1983.8097,-184 1993.8097,-187.5001 1993.8098,-180.5001"/>
</g>
<!-- BudgetDetailComponent -->
<g id="node2" class="node">
<title>BudgetDetailComponent</title>
<polygon fill="#ffffb3" stroke="#000000" points="3755.9818,-122 3600.0182,-122 3600.0182,-86 3755.9818,-86 3755.9818,-122"/>
<text text-anchor="middle" x="3678" y="-99.8" font-family="Times,serif" font-size="14.00" fill="#000000">BudgetDetailComponent</text>
</g>
<!-- BudgetDetailComponent&#45;&gt;MaterialComponentsModule -->
<g id="edge2" class="edge">
<title>BudgetDetailComponent&#45;&gt;MaterialComponentsModule</title>
<path fill="none" stroke="#000000" d="M3678,-122.0908C3678,-145.1328 3678,-182 3678,-182 3678,-182 1994.0293,-182 1994.0293,-182"/>
<polygon fill="#000000" stroke="#000000" points="1994.0293,-178.5001 1984.0293,-182 1994.0292,-185.5001 1994.0293,-178.5001"/>
</g>
<!-- BudgetGoalComponent -->
<g id="node3" class="node">
<title>BudgetGoalComponent</title>
<polygon fill="#ffffb3" stroke="#000000" points="3582.486,-122 3433.514,-122 3433.514,-86 3582.486,-86 3582.486,-122"/>
<text text-anchor="middle" x="3508" y="-99.8" font-family="Times,serif" font-size="14.00" fill="#000000">BudgetGoalComponent</text>
</g>
<!-- BudgetGoalComponent&#45;&gt;MaterialComponentsModule -->
<g id="edge3" class="edge">
<title>BudgetGoalComponent&#45;&gt;MaterialComponentsModule</title>
<path fill="none" stroke="#000000" d="M3508,-122.2921C3508,-144.2057 3508,-178 3508,-178 3508,-178 1994.0195,-178 1994.0195,-178"/>
<polygon fill="#000000" stroke="#000000" points="1994.0195,-174.5001 1984.0195,-178 1994.0194,-181.5001 1994.0195,-174.5001"/>
</g>
<!-- CheckDespachoComponent -->
<g id="node4" class="node">
<title>CheckDespachoComponent</title>
<polygon fill="#ffffb3" stroke="#000000" points="3415.2934,-122 3242.7066,-122 3242.7066,-86 3415.2934,-86 3415.2934,-122"/>
<text text-anchor="middle" x="3329" y="-99.8" font-family="Times,serif" font-size="14.00" fill="#000000">CheckDespachoComponent</text>
</g>
<!-- CheckDespachoComponent&#45;&gt;MaterialComponentsModule -->
<g id="edge4" class="edge">
<title>CheckDespachoComponent&#45;&gt;MaterialComponentsModule</title>
<path fill="none" stroke="#000000" d="M3329,-122.2843C3329,-143.3211 3329,-175 3329,-175 3329,-175 1993.8909,-175 1993.8909,-175"/>
<polygon fill="#000000" stroke="#000000" points="1993.891,-171.5001 1983.8909,-175 1993.8909,-178.5001 1993.891,-171.5001"/>
</g>
<!-- CostEffectivenessComponent -->
<g id="node5" class="node">
<title>CostEffectivenessComponent</title>
<polygon fill="#ffffb3" stroke="#000000" points="3225.4073,-122 3042.5927,-122 3042.5927,-86 3225.4073,-86 3225.4073,-122"/>
<text text-anchor="middle" x="3134" y="-99.8" font-family="Times,serif" font-size="14.00" fill="#000000">CostEffectivenessComponent</text>
</g>
<!-- CostEffectivenessComponent&#45;&gt;MaterialComponentsModule -->
<g id="edge5" class="edge">
<title>CostEffectivenessComponent&#45;&gt;MaterialComponentsModule</title>
<path fill="none" stroke="#000000" d="M3134,-122.2228C3134,-142.3652 3134,-172 3134,-172 3134,-172 1994.1058,-172 1994.1058,-172"/>
<polygon fill="#000000" stroke="#000000" points="1994.1059,-168.5001 1984.1058,-172 1994.1058,-175.5001 1994.1059,-168.5001"/>
</g>
<!-- DeclarationImportComponent -->
<g id="node6" class="node">
<title>DeclarationImportComponent</title>
<polygon fill="#ffffb3" stroke="#000000" points="3024.2324,-122 2839.7676,-122 2839.7676,-86 3024.2324,-86 3024.2324,-122"/>
<text text-anchor="middle" x="2932" y="-99.8" font-family="Times,serif" font-size="14.00" fill="#000000">DeclarationImportComponent</text>
</g>
<!-- DeclarationImportComponent&#45;&gt;MaterialComponentsModule -->
<g id="edge6" class="edge">
<title>DeclarationImportComponent&#45;&gt;MaterialComponentsModule</title>
<path fill="none" stroke="#000000" d="M2932,-122.1061C2932,-141.3391 2932,-169 2932,-169 2932,-169 1993.8623,-169 1993.8623,-169"/>
<polygon fill="#000000" stroke="#000000" points="1993.8624,-165.5001 1983.8623,-169 1993.8623,-172.5001 1993.8624,-165.5001"/>
</g>
<!-- DescriptionDespachoComponent -->
<g id="node7" class="node">
<title>DescriptionDespachoComponent</title>
<polygon fill="#ffffb3" stroke="#000000" points="2821.8403,-122 2620.1597,-122 2620.1597,-86 2821.8403,-86 2821.8403,-122"/>
<text text-anchor="middle" x="2721" y="-99.8" font-family="Times,serif" font-size="14.00" fill="#000000">DescriptionDespachoComponent</text>
</g>
<!-- DescriptionDespachoComponent&#45;&gt;MaterialComponentsModule -->
<g id="edge7" class="edge">
<title>DescriptionDespachoComponent&#45;&gt;MaterialComponentsModule</title>
<path fill="none" stroke="#000000" d="M2721,-122.2222C2721,-140.8285 2721,-167 2721,-167 2721,-167 1993.7885,-167 1993.7885,-167"/>
<polygon fill="#000000" stroke="#000000" points="1993.7886,-163.5001 1983.7885,-167 1993.7885,-170.5001 1993.7886,-163.5001"/>
</g>
<!-- DialogAnomalyComponent -->
<g id="node8" class="node">
<title>DialogAnomalyComponent</title>
<polygon fill="#ffffb3" stroke="#000000" points="2601.5378,-122 2430.4622,-122 2430.4622,-86 2601.5378,-86 2601.5378,-122"/>
<text text-anchor="middle" x="2516" y="-99.8" font-family="Times,serif" font-size="14.00" fill="#000000">DialogAnomalyComponent</text>
</g>
<!-- DialogAnomalyComponent&#45;&gt;MaterialComponentsModule -->
<g id="edge8" class="edge">
<title>DialogAnomalyComponent&#45;&gt;MaterialComponentsModule</title>
<path fill="none" stroke="#000000" d="M2516,-122.0225C2516,-139.3734 2516,-163 2516,-163 2516,-163 1993.9742,-163 1993.9742,-163"/>
<polygon fill="#000000" stroke="#000000" points="1993.9742,-159.5001 1983.9742,-163 1993.9741,-166.5001 1993.9742,-159.5001"/>
</g>
<!-- DialogReportComponent -->
<g id="node9" class="node">
<title>DialogReportComponent</title>
<polygon fill="#ffffb3" stroke="#000000" points="2411.5379,-122 2254.4621,-122 2254.4621,-86 2411.5379,-86 2411.5379,-122"/>
<text text-anchor="middle" x="2333" y="-99.8" font-family="Times,serif" font-size="14.00" fill="#000000">DialogReportComponent</text>
</g>
<!-- DialogReportComponent&#45;&gt;MaterialComponentsModule -->
<g id="edge9" class="edge">
<title>DialogReportComponent&#45;&gt;MaterialComponentsModule</title>
<path fill="none" stroke="#000000" d="M2333,-122.027C2333,-138.3976 2333,-160 2333,-160 2333,-160 1993.8997,-160 1993.8997,-160"/>
<polygon fill="#000000" stroke="#000000" points="1993.8997,-156.5001 1983.8997,-160 1993.8996,-163.5001 1993.8997,-156.5001"/>
</g>
<!-- GridComponent -->
<g id="node10" class="node">
<title>GridComponent</title>
<polygon fill="#ffffb3" stroke="#000000" points="2236.4902,-122 2129.5098,-122 2129.5098,-86 2236.4902,-86 2236.4902,-122"/>
<text text-anchor="middle" x="2183" y="-99.8" font-family="Times,serif" font-size="14.00" fill="#000000">GridComponent</text>
</g>
<!-- GridComponent&#45;&gt;MaterialComponentsModule -->
<g id="edge10" class="edge">
<title>GridComponent&#45;&gt;MaterialComponentsModule</title>
<path fill="none" stroke="#000000" d="M2183,-122.2396C2183,-137.5706 2183,-157 2183,-157 2183,-157 1993.7595,-157 1993.7595,-157"/>
<polygon fill="#000000" stroke="#000000" points="1993.7595,-153.5001 1983.7595,-157 1993.7594,-160.5001 1993.7595,-153.5001"/>
</g>
<!-- ListsComponent -->
<g id="node11" class="node">
<title>ListsComponent</title>
<polygon fill="#ffffb3" stroke="#000000" points="2111.0563,-122 2002.9437,-122 2002.9437,-86 2111.0563,-86 2111.0563,-122"/>
<text text-anchor="middle" x="2057" y="-99.8" font-family="Times,serif" font-size="14.00" fill="#000000">ListsComponent</text>
</g>
<!-- ListsComponent&#45;&gt;MaterialComponentsModule -->
<g id="edge11" class="edge">
<title>ListsComponent&#45;&gt;MaterialComponentsModule</title>
<path fill="none" stroke="#000000" d="M2057,-122.0511C2057,-136.373 2057,-154 2057,-154 2057,-154 1994.0565,-154 1994.0565,-154"/>
<polygon fill="#000000" stroke="#000000" points="1994.0565,-150.5001 1984.0565,-154 1994.0565,-157.5001 1994.0565,-150.5001"/>
</g>
<!-- LowSalesProductComponent -->
<g id="node12" class="node">
<title>LowSalesProductComponent</title>
<polygon fill="#ffffb3" stroke="#000000" points="1985.087,-122 1804.913,-122 1804.913,-86 1985.087,-86 1985.087,-122"/>
<text text-anchor="middle" x="1895" y="-99.8" font-family="Times,serif" font-size="14.00" fill="#000000">LowSalesProductComponent</text>
</g>
<!-- LowSalesProductComponent&#45;&gt;MaterialComponentsModule -->
<g id="edge12" class="edge">
<title>LowSalesProductComponent&#45;&gt;MaterialComponentsModule</title>
<path fill="none" stroke="#000000" d="M1895,-122.1061C1895,-122.1061 1895,-140.991 1895,-140.991"/>
<polygon fill="#000000" stroke="#000000" points="1891.5001,-140.9909 1895,-150.991 1898.5001,-140.991 1891.5001,-140.9909"/>
</g>
<!-- MenuComponent -->
<g id="node13" class="node">
<title>MenuComponent</title>
<polygon fill="#ffffb3" stroke="#000000" points="1786.9916,-122 1673.0084,-122 1673.0084,-86 1786.9916,-86 1786.9916,-122"/>
<text text-anchor="middle" x="1730" y="-99.8" font-family="Times,serif" font-size="14.00" fill="#000000">MenuComponent</text>
</g>
<!-- MenuComponent&#45;&gt;MaterialComponentsModule -->
<g id="edge13" class="edge">
<title>MenuComponent&#45;&gt;MaterialComponentsModule</title>
<path fill="none" stroke="#000000" d="M1730,-122.0511C1730,-136.373 1730,-154 1730,-154 1730,-154 1796.2212,-154 1796.2212,-154"/>
<polygon fill="#000000" stroke="#000000" points="1796.2213,-157.5001 1806.2212,-154 1796.2212,-150.5001 1796.2213,-157.5001"/>
</g>
<!-- NewUserComponent -->
<g id="node14" class="node">
<title>NewUserComponent</title>
<polygon fill="#ffffb3" stroke="#000000" points="1655.1867,-122 1520.8133,-122 1520.8133,-86 1655.1867,-86 1655.1867,-122"/>
<text text-anchor="middle" x="1588" y="-99.8" font-family="Times,serif" font-size="14.00" fill="#000000">NewUserComponent</text>
</g>
<!-- NewUserComponent&#45;&gt;MaterialComponentsModule -->
<g id="edge14" class="edge">
<title>NewUserComponent&#45;&gt;MaterialComponentsModule</title>
<path fill="none" stroke="#000000" d="M1588,-122.2396C1588,-137.5706 1588,-157 1588,-157 1588,-157 1796.2029,-157 1796.2029,-157"/>
<polygon fill="#000000" stroke="#000000" points="1796.2029,-160.5001 1806.2029,-157 1796.2028,-153.5001 1796.2029,-160.5001"/>
</g>
<!-- ReportStoreComponent -->
<g id="node15" class="node">
<title>ReportStoreComponent</title>
<polygon fill="#ffffb3" stroke="#000000" points="1502.4832,-122 1353.5168,-122 1353.5168,-86 1502.4832,-86 1502.4832,-122"/>
<text text-anchor="middle" x="1428" y="-99.8" font-family="Times,serif" font-size="14.00" fill="#000000">ReportStoreComponent</text>
</g>
<!-- ReportStoreComponent&#45;&gt;MaterialComponentsModule -->
<g id="edge15" class="edge">
<title>ReportStoreComponent&#45;&gt;MaterialComponentsModule</title>
<path fill="none" stroke="#000000" d="M1428,-122.027C1428,-138.3976 1428,-160 1428,-160 1428,-160 1796.0616,-160 1796.0616,-160"/>
<polygon fill="#000000" stroke="#000000" points="1796.0617,-163.5001 1806.0616,-160 1796.0616,-156.5001 1796.0617,-163.5001"/>
</g>
<!-- RosterComponent -->
<g id="node16" class="node">
<title>RosterComponent</title>
<polygon fill="#ffffb3" stroke="#000000" points="1335.8795,-122 1218.1205,-122 1218.1205,-86 1335.8795,-86 1335.8795,-122"/>
<text text-anchor="middle" x="1277" y="-99.8" font-family="Times,serif" font-size="14.00" fill="#000000">RosterComponent</text>
</g>
<!-- RosterComponent&#45;&gt;MaterialComponentsModule -->
<g id="edge16" class="edge">
<title>RosterComponent&#45;&gt;MaterialComponentsModule</title>
<path fill="none" stroke="#000000" d="M1277,-122.0225C1277,-139.3734 1277,-163 1277,-163 1277,-163 1796.1268,-163 1796.1268,-163"/>
<polygon fill="#000000" stroke="#000000" points="1796.1269,-166.5001 1806.1268,-163 1796.1268,-159.5001 1796.1269,-166.5001"/>
</g>
<!-- SchedulesComponent -->
<g id="node17" class="node">
<title>SchedulesComponent</title>
<polygon fill="#ffffb3" stroke="#000000" points="1200.094,-122 1061.906,-122 1061.906,-86 1200.094,-86 1200.094,-122"/>
<text text-anchor="middle" x="1131" y="-99.8" font-family="Times,serif" font-size="14.00" fill="#000000">SchedulesComponent</text>
</g>
<!-- SchedulesComponent&#45;&gt;MaterialComponentsModule -->
<g id="edge17" class="edge">
<title>SchedulesComponent&#45;&gt;MaterialComponentsModule</title>
<path fill="none" stroke="#000000" d="M1131,-122.2222C1131,-140.8285 1131,-167 1131,-167 1131,-167 1796.239,-167 1796.239,-167"/>
<polygon fill="#000000" stroke="#000000" points="1796.239,-170.5001 1806.239,-167 1796.239,-163.5001 1796.239,-170.5001"/>
</g>
<!-- SettlementComponent -->
<g id="node18" class="node">
<title>SettlementComponent</title>
<polygon fill="#ffffb3" stroke="#000000" points="1043.712,-122 902.288,-122 902.288,-86 1043.712,-86 1043.712,-122"/>
<text text-anchor="middle" x="973" y="-99.8" font-family="Times,serif" font-size="14.00" fill="#000000">SettlementComponent</text>
</g>
<!-- SettlementComponent&#45;&gt;MaterialComponentsModule -->
<g id="edge18" class="edge">
<title>SettlementComponent&#45;&gt;MaterialComponentsModule</title>
<path fill="none" stroke="#000000" d="M973,-122.1061C973,-141.3391 973,-169 973,-169 973,-169 1796.1763,-169 1796.1763,-169"/>
<polygon fill="#000000" stroke="#000000" points="1796.1763,-172.5001 1806.1763,-169 1796.1763,-165.5001 1796.1763,-172.5001"/>
</g>
<!-- UploadCsvComponent -->
<g id="node19" class="node">
<title>UploadCsvComponent</title>
<polygon fill="#ffffb3" stroke="#000000" points="884.3258,-122 739.6742,-122 739.6742,-86 884.3258,-86 884.3258,-122"/>
<text text-anchor="middle" x="812" y="-99.8" font-family="Times,serif" font-size="14.00" fill="#000000">UploadCsvComponent</text>
</g>
<!-- UploadCsvComponent&#45;&gt;MaterialComponentsModule -->
<g id="edge19" class="edge">
<title>UploadCsvComponent&#45;&gt;MaterialComponentsModule</title>
<path fill="none" stroke="#000000" d="M812,-122.2228C812,-142.3652 812,-172 812,-172 812,-172 1795.9134,-172 1795.9134,-172"/>
<polygon fill="#000000" stroke="#000000" points="1795.9134,-175.5001 1805.9134,-172 1795.9133,-168.5001 1795.9134,-175.5001"/>
</g>
<!-- ViewDeclarationComponent -->
<g id="node20" class="node">
<title>ViewDeclarationComponent</title>
<polygon fill="#ffffb3" stroke="#000000" points="721.4482,-122 544.5518,-122 544.5518,-86 721.4482,-86 721.4482,-122"/>
<text text-anchor="middle" x="633" y="-99.8" font-family="Times,serif" font-size="14.00" fill="#000000">ViewDeclarationComponent</text>
</g>
<!-- ViewDeclarationComponent&#45;&gt;MaterialComponentsModule -->
<g id="edge20" class="edge">
<title>ViewDeclarationComponent&#45;&gt;MaterialComponentsModule</title>
<path fill="none" stroke="#000000" d="M633,-122.2843C633,-143.3211 633,-175 633,-175 633,-175 1796.0074,-175 1796.0074,-175"/>
<polygon fill="#000000" stroke="#000000" points="1796.0074,-178.5001 1806.0074,-175 1796.0073,-171.5001 1796.0074,-178.5001"/>
</g>
<!-- ViewReportComponent -->
<g id="node21" class="node">
<title>ViewReportComponent</title>
<polygon fill="#ffffb3" stroke="#000000" points="526.7534,-122 377.2466,-122 377.2466,-86 526.7534,-86 526.7534,-122"/>
<text text-anchor="middle" x="452" y="-99.8" font-family="Times,serif" font-size="14.00" fill="#000000">ViewReportComponent</text>
</g>
<!-- ViewReportComponent&#45;&gt;MaterialComponentsModule -->
<g id="edge21" class="edge">
<title>ViewReportComponent&#45;&gt;MaterialComponentsModule</title>
<path fill="none" stroke="#000000" d="M452,-122.2921C452,-144.2057 452,-178 452,-178 452,-178 1796.0942,-178 1796.0942,-178"/>
<polygon fill="#000000" stroke="#000000" points="1796.0942,-181.5001 1806.0942,-178 1796.0942,-174.5001 1796.0942,-181.5001"/>
</g>
<!-- ViewdespachosComponent -->
<g id="node22" class="node">
<title>ViewdespachosComponent</title>
<polygon fill="#ffffb3" stroke="#000000" points="359.6839,-122 190.3161,-122 190.3161,-86 359.6839,-86 359.6839,-122"/>
<text text-anchor="middle" x="275" y="-99.8" font-family="Times,serif" font-size="14.00" fill="#000000">ViewdespachosComponent</text>
</g>
<!-- ViewdespachosComponent&#45;&gt;MaterialComponentsModule -->
<g id="edge22" class="edge">
<title>ViewdespachosComponent&#45;&gt;MaterialComponentsModule</title>
<path fill="none" stroke="#000000" d="M275,-122.0908C275,-145.1328 275,-182 275,-182 275,-182 1796.1736,-182 1796.1736,-182"/>
<polygon fill="#000000" stroke="#000000" points="1796.1736,-185.5001 1806.1736,-182 1796.1736,-178.5001 1796.1736,-185.5001"/>
</g>
<!-- DemoMaterialModule -->
<g id="node24" class="node">
<title>DemoMaterialModule</title>
<polygon fill="#8dd3c7" stroke="#000000" points="165.6825,-122 162.6825,-126 141.6825,-126 138.6825,-122 24.3175,-122 24.3175,-86 165.6825,-86 165.6825,-122"/>
<text text-anchor="middle" x="95" y="-99.8" font-family="Times,serif" font-size="14.00" fill="#000000">DemoMaterialModule</text>
</g>
<!-- DemoMaterialModule&#45;&gt;MaterialComponentsModule -->
<g id="edge23" class="edge">
<title>DemoMaterialModule&#45;&gt;MaterialComponentsModule</title>
<path fill="none" stroke="#000000" d="M95,-122.1532C95,-145.7566 95,-184 95,-184 95,-184 1796.0449,-184 1796.0449,-184"/>
<polygon fill="#000000" stroke="#000000" points="1796.045,-187.5001 1806.0449,-184 1796.0449,-180.5001 1796.045,-187.5001"/>
</g>
</g>
</svg>
