<?xml version="1.0" encoding="UTF-8" standalone="no"?>
<!DOCTYPE svg PUBLIC "-//W3C//DTD SVG 1.1//EN"
 "http://www.w3.org/Graphics/SVG/1.1/DTD/svg11.dtd">
<!-- Generated by graphviz version 2.40.1 (20161225.0304)
 -->
<!-- Title: dependencies Pages: 1 -->
<svg width="533pt" height="211pt"
 viewBox="0.00 0.00 533.00 211.00" xmlns="http://www.w3.org/2000/svg" xmlns:xlink="http://www.w3.org/1999/xlink">
<g id="graph0" class="graph" transform="scale(1 1) rotate(0) translate(4 207)">
<title>dependencies</title>
<polygon fill="#ffffff" stroke="transparent" points="-4,4 -4,-207 529,-207 529,4 -4,4"/>
<text text-anchor="start" x="241.5091" y="-42.4" font-family="sans-serif" font-weight="bold" font-size="14.00" fill="#000000">Legend</text>
<polygon fill="#ffffb3" stroke="transparent" points="28.5,-10 28.5,-30 48.5,-30 48.5,-10 28.5,-10"/>
<text text-anchor="start" x="52.129" y="-15.4" font-family="sans-serif" font-size="14.00" fill="#000000"> &#160;Declarations</text>
<polygon fill="#8dd3c7" stroke="transparent" points="141.5,-10 141.5,-30 161.5,-30 161.5,-10 141.5,-10"/>
<text text-anchor="start" x="165.2251" y="-15.4" font-family="sans-serif" font-size="14.00" fill="#000000"> &#160;Module</text>
<polygon fill="#80b1d3" stroke="transparent" points="227.5,-10 227.5,-30 247.5,-30 247.5,-10 227.5,-10"/>
<text text-anchor="start" x="251.2812" y="-15.4" font-family="sans-serif" font-size="14.00" fill="#000000"> &#160;Bootstrap</text>
<polygon fill="#fdb462" stroke="transparent" points="324.5,-10 324.5,-30 344.5,-30 344.5,-10 324.5,-10"/>
<text text-anchor="start" x="348.1732" y="-15.4" font-family="sans-serif" font-size="14.00" fill="#000000"> &#160;Providers</text>
<polygon fill="#fb8072" stroke="transparent" points="420.5,-10 420.5,-30 440.5,-30 440.5,-10 420.5,-10"/>
<text text-anchor="start" x="444.2258" y="-15.4" font-family="sans-serif" font-size="14.00" fill="#000000"> &#160;Exports</text>
<g id="clust1" class="cluster">
<title>cluster_StarterModule</title>
<polygon fill="none" stroke="#000000" stroke-dasharray="1,5" points="8,-70 8,-195 517,-195 517,-70 8,-70"/>
</g>
<g id="clust2" class="cluster">
<title>cluster_StarterModule_declarations</title>
<polygon fill="none" stroke="#000000" points="182,-78 182,-130 509,-130 509,-78 182,-78"/>
</g>
<g id="clust5" class="cluster">
<title>cluster_StarterModule_imports</title>
<polygon fill="none" stroke="#000000" points="16,-78 16,-130 174,-130 174,-78 16,-78"/>
</g>
<!-- CreateDespachoComponent -->
<g id="node1" class="node">
<title>CreateDespachoComponent</title>
<polygon fill="#ffffb3" stroke="#000000" points="500.559,-122 327.441,-122 327.441,-86 500.559,-86 500.559,-122"/>
<text text-anchor="middle" x="414" y="-99.8" font-family="Times,serif" font-size="14.00" fill="#000000">CreateDespachoComponent</text>
</g>
<!-- StarterModule -->
<g id="node3" class="node">
<title>StarterModule</title>
<polygon fill="#8dd3c7" stroke="#000000" points="298.3641,-187 295.3641,-191 274.3641,-191 271.3641,-187 201.6359,-187 201.6359,-151 298.3641,-151 298.3641,-187"/>
<text text-anchor="middle" x="250" y="-164.8" font-family="Times,serif" font-size="14.00" fill="#000000">StarterModule</text>
</g>
<!-- CreateDespachoComponent&#45;&gt;StarterModule -->
<g id="edge1" class="edge">
<title>CreateDespachoComponent&#45;&gt;StarterModule</title>
<path fill="none" stroke="#000000" d="M414,-122.1061C414,-141.3391 414,-169 414,-169 414,-169 308.7614,-169 308.7614,-169"/>
<polygon fill="#000000" stroke="#000000" points="308.7614,-165.5001 298.7614,-169 308.7613,-172.5001 308.7614,-165.5001"/>
</g>
<!-- DialogComponent -->
<g id="node2" class="node">
<title>DialogComponent</title>
<polygon fill="#ffffb3" stroke="#000000" points="309.9356,-122 190.0644,-122 190.0644,-86 309.9356,-86 309.9356,-122"/>
<text text-anchor="middle" x="250" y="-99.8" font-family="Times,serif" font-size="14.00" fill="#000000">DialogComponent</text>
</g>
<!-- DialogComponent&#45;&gt;StarterModule -->
<g id="edge2" class="edge">
<title>DialogComponent&#45;&gt;StarterModule</title>
<path fill="none" stroke="#000000" d="M250,-122.1061C250,-122.1061 250,-140.991 250,-140.991"/>
<polygon fill="#000000" stroke="#000000" points="246.5001,-140.9909 250,-150.991 253.5001,-140.991 246.5001,-140.9909"/>
</g>
<!-- DemoMaterialModule -->
<g id="node4" class="node">
<title>DemoMaterialModule</title>
<polygon fill="#8dd3c7" stroke="#000000" points="165.6825,-122 162.6825,-126 141.6825,-126 138.6825,-122 24.3175,-122 24.3175,-86 165.6825,-86 165.6825,-122"/>
<text text-anchor="middle" x="95" y="-99.8" font-family="Times,serif" font-size="14.00" fill="#000000">DemoMaterialModule</text>
</g>
<!-- DemoMaterialModule&#45;&gt;StarterModule -->
<g id="edge3" class="edge">
<title>DemoMaterialModule&#45;&gt;StarterModule</title>
<path fill="none" stroke="#000000" d="M95,-122.1061C95,-141.3391 95,-169 95,-169 95,-169 191.3823,-169 191.3823,-169"/>
<polygon fill="#000000" stroke="#000000" points="191.3823,-172.5001 201.3823,-169 191.3823,-165.5001 191.3823,-172.5001"/>
</g>
</g>
</svg>
